<?xml version='1.0' encoding='UTF-8'?>
<svg width="43mm" height="43mm" version="1.1" viewBox="0 0 43 43" fill_color="black" back_color="white" xmlns="http://www.w3.org/2000/svg"><path d="M5,5H6V6H5zM6,5H7V6H6zM7,5H8V6H7zM8,5H9V6H8zM9,5H10V6H9zM10,5H11V6H10zM11,5H12V6H11zM14,5H15V6H14zM16,5H17V6H16zM21,5H22V6H21zM24,5H25V6H24zM25,5H26V6H25zM26,5H27V6H26zM28,5H29V6H28zM31,5H32V6H31zM32,5H33V6H32zM33,5H34V6H33zM34,5H35V6H34zM35,5H36V6H35zM36,5H37V6H36zM37,5H38V6H37zM5,6H6V7H5zM11,6H12V7H11zM14,6H15V7H14zM16,6H17V7H16zM20,6H21V7H20zM23,6H24V7H23zM25,6H26V7H25zM26,6H27V7H26zM31,6H32V7H31zM37,6H38V7H37zM5,7H6V8H5zM7,7H8V8H7zM8,7H9V8H8zM9,7H10V8H9zM11,7H12V8H11zM13,7H14V8H13zM14,7H15V8H14zM19,7H20V8H19zM21,7H22V8H21zM24,7H25V8H24zM26,7H27V8H26zM27,7H28V8H27zM31,7H32V8H31zM33,7H34V8H33zM34,7H35V8H34zM35,7H36V8H35zM37,7H38V8H37zM5,8H6V9H5zM7,8H8V9H7zM8,8H9V9H8zM9,8H10V9H9zM11,8H12V9H11zM13,8H14V9H13zM23,8H24V9H23zM26,8H27V9H26zM29,8H30V9H29zM31,8H32V9H31zM33,8H34V9H33zM34,8H35V9H34zM35,8H36V9H35zM37,8H38V9H37zM5,9H6V10H5zM7,9H8V10H7zM8,9H9V10H8zM9,9H10V10H9zM11,9H12V10H11zM13,9H14V10H13zM14,9H15V10H14zM16,9H17V10H16zM17,9H18V10H17zM19,9H20V10H19zM20,9H21V10H20zM21,9H22V10H21zM25,9H26V10H25zM26,9H27V10H26zM28,9H29V10H28zM31,9H32V10H31zM33,9H34V10H33zM34,9H35V10H34zM35,9H36V10H35zM37,9H38V10H37zM5,10H6V11H5zM11,10H12V11H11zM13,10H14V11H13zM14,10H15V11H14zM15,10H16V11H15zM16,10H17V11H16zM17,10H18V11H17zM19,10H20V11H19zM24,10H25V11H24zM29,10H30V11H29zM31,10H32V11H31zM37,10H38V11H37zM5,11H6V12H5zM6,11H7V12H6zM7,11H8V12H7zM8,11H9V12H8zM9,11H10V12H9zM10,11H11V12H10zM11,11H12V12H11zM13,11H14V12H13zM15,11H16V12H15zM17,11H18V12H17zM19,11H20V12H19zM21,11H22V12H21zM23,11H24V12H23zM25,11H26V12H25zM27,11H28V12H27zM29,11H30V12H29zM31,11H32V12H31zM32,11H33V12H32zM33,11H34V12H33zM34,11H35V12H34zM35,11H36V12H35zM36,11H37V12H36zM37,11H38V12H37zM13,12H14V13H13zM16,12H17V13H16zM19,12H20V13H19zM21,12H22V13H21zM23,12H24V13H23zM24,12H25V13H24zM25,12H26V13H25zM26,12H27V13H26zM5,13H6V14H5zM7,13H8V14H7zM8,13H9V14H8zM9,13H10V14H9zM10,13H11V14H10zM11,13H12V14H11zM14,13H15V14H14zM15,13H16V14H15zM16,13H17V14H16zM18,13H19V14H18zM19,13H20V14H19zM22,13H23V14H22zM24,13H25V14H24zM31,13H32V14H31zM32,13H33V14H32zM33,13H34V14H33zM34,13H35V14H34zM35,13H36V14H35zM5,14H6V15H5zM8,14H9V15H8zM10,14H11V15H10zM12,14H13V15H12zM15,14H16V15H15zM16,14H17V15H16zM18,14H19V15H18zM19,14H20V15H19zM21,14H22V15H21zM22,14H23V15H22zM23,14H24V15H23zM24,14H25V15H24zM25,14H26V15H25zM28,14H29V15H28zM31,14H32V15H31zM32,14H33V15H32zM34,14H35V15H34zM35,14H36V15H35zM37,14H38V15H37zM8,15H9V16H8zM9,15H10V16H9zM11,15H12V16H11zM15,15H16V16H15zM16,15H17V16H16zM18,15H19V16H18zM19,15H20V16H19zM20,15H21V16H20zM21,15H22V16H21zM22,15H23V16H22zM25,15H26V16H25zM27,15H28V16H27zM29,15H30V16H29zM30,15H31V16H30zM33,15H34V16H33zM35,15H36V16H35zM36,15H37V16H36zM5,16H6V17H5zM6,16H7V17H6zM9,16H10V17H9zM13,16H14V17H13zM15,16H16V17H15zM18,16H19V17H18zM21,16H22V17H21zM22,16H23V17H22zM23,16H24V17H23zM24,16H25V17H24zM25,16H26V17H25zM29,16H30V17H29zM30,16H31V17H30zM33,16H34V17H33zM34,16H35V17H34zM35,16H36V17H35zM36,16H37V17H36zM5,17H6V18H5zM7,17H8V18H7zM8,17H9V18H8zM11,17H12V18H11zM12,17H13V18H12zM13,17H14V18H13zM14,17H15V18H14zM15,17H16V18H15zM16,17H17V18H16zM17,17H18V18H17zM19,17H20V18H19zM21,17H22V18H21zM24,17H25V18H24zM25,17H26V18H25zM26,17H27V18H26zM27,17H28V18H27zM28,17H29V18H28zM30,17H31V18H30zM32,17H33V18H32zM33,17H34V18H33zM34,17H35V18H34zM37,17H38V18H37zM5,18H6V19H5zM12,18H13V19H12zM14,18H15V19H14zM15,18H16V19H15zM16,18H17V19H16zM17,18H18V19H17zM18,18H19V19H18zM20,18H21V19H20zM23,18H24V19H23zM28,18H29V19H28zM30,18H31V19H30zM31,18H32V19H31zM34,18H35V19H34zM35,18H36V19H35zM36,18H37V19H36zM37,18H38V19H37zM6,19H7V20H6zM9,19H10V20H9zM11,19H12V20H11zM13,19H14V20H13zM14,19H15V20H14zM16,19H17V20H16zM19,19H20V20H19zM20,19H21V20H20zM21,19H22V20H21zM23,19H24V20H23zM25,19H26V20H25zM27,19H28V20H27zM30,19H31V20H30zM31,19H32V20H31zM32,19H33V20H32zM33,19H34V20H33zM34,19H35V20H34zM35,19H36V20H35zM36,19H37V20H36zM6,20H7V21H6zM9,20H10V21H9zM10,20H11V21H10zM13,20H14V21H13zM14,20H15V21H14zM16,20H17V21H16zM18,20H19V21H18zM20,20H21V21H20zM26,20H27V21H26zM29,20H30V21H29zM30,20H31V21H30zM31,20H32V21H31zM33,20H34V21H33zM34,20H35V21H34zM35,20H36V21H35zM5,21H6V22H5zM6,21H7V22H6zM8,21H9V22H8zM9,21H10V22H9zM11,21H12V22H11zM12,21H13V22H12zM14,21H15V22H14zM16,21H17V22H16zM17,21H18V22H17zM19,21H20V22H19zM20,21H21V22H20zM22,21H23V22H22zM27,21H28V22H27zM29,21H30V22H29zM30,21H31V22H30zM32,21H33V22H32zM33,21H34V22H33zM37,21H38V22H37zM5,22H6V23H5zM8,22H9V23H8zM12,22H13V23H12zM15,22H16V23H15zM18,22H19V23H18zM19,22H20V23H19zM23,22H24V23H23zM24,22H25V23H24zM25,22H26V23H25zM26,22H27V23H26zM28,22H29V23H28zM31,22H32V23H31zM32,22H33V23H32zM34,22H35V23H34zM35,22H36V23H35zM36,22H37V23H36zM37,22H38V23H37zM6,23H7V24H6zM7,23H8V24H7zM8,23H9V24H8zM9,23H10V24H9zM10,23H11V24H10zM11,23H12V24H11zM13,23H14V24H13zM17,23H18V24H17zM20,23H21V24H20zM23,23H24V24H23zM25,23H26V24H25zM26,23H27V24H26zM29,23H30V24H29zM30,23H31V24H30zM32,23H33V24H32zM33,23H34V24H33zM35,23H36V24H35zM36,23H37V24H36zM8,24H9V25H8zM13,24H14V25H13zM16,24H17V25H16zM18,24H19V25H18zM19,24H20V25H19zM20,24H21V25H20zM24,24H25V25H24zM25,24H26V25H25zM26,24H27V25H26zM27,24H28V25H27zM30,24H31V25H30zM31,24H32V25H31zM32,24H33V25H32zM33,24H34V25H33zM34,24H35V25H34zM35,24H36V25H35zM36,24H37V25H36zM8,25H9V26H8zM11,25H12V26H11zM12,25H13V26H12zM15,25H16V26H15zM17,25H18V26H17zM20,25H21V26H20zM23,25H24V26H23zM24,25H25V26H24zM26,25H27V26H26zM29,25H30V26H29zM32,25H33V26H32zM33,25H34V26H33zM34,25H35V26H34zM36,25H37V26H36zM37,25H38V26H37zM5,26H6V27H5zM6,26H7V27H6zM7,26H8V27H7zM9,26H10V27H9zM14,26H15V27H14zM16,26H17V27H16zM17,26H18V27H17zM20,26H21V27H20zM21,26H22V27H21zM25,26H26V27H25zM26,26H27V27H26zM27,26H28V27H27zM28,26H29V27H28zM31,26H32V27H31zM35,26H36V27H35zM37,26H38V27H37zM5,27H6V28H5zM8,27H9V28H8zM9,27H10V28H9zM10,27H11V28H10zM11,27H12V28H11zM12,27H13V28H12zM13,27H14V28H13zM14,27H15V28H14zM17,27H18V28H17zM22,27H23V28H22zM24,27H25V28H24zM29,27H30V28H29zM30,27H31V28H30zM34,27H35V28H34zM35,27H36V28H35zM36,27H37V28H36zM5,28H6V29H5zM7,28H8V29H7zM9,28H10V29H9zM10,28H11V29H10zM13,28H14V29H13zM15,28H16V29H15zM16,28H17V29H16zM18,28H19V29H18zM19,28H20V29H19zM21,28H22V29H21zM23,28H24V29H23zM24,28H25V29H24zM25,28H26V29H25zM26,28H27V29H26zM27,28H28V29H27zM30,28H31V29H30zM31,28H32V29H31zM33,28H34V29H33zM34,28H35V29H34zM35,28H36V29H35zM36,28H37V29H36zM5,29H6V30H5zM7,29H8V30H7zM10,29H11V30H10zM11,29H12V30H11zM12,29H13V30H12zM15,29H16V30H15zM16,29H17V30H16zM18,29H19V30H18zM21,29H22V30H21zM22,29H23V30H22zM24,29H25V30H24zM27,29H28V30H27zM29,29H30V30H29zM30,29H31V30H30zM31,29H32V30H31zM32,29H33V30H32zM33,29H34V30H33zM34,29H35V30H34zM36,29H37V30H36zM37,29H38V30H37zM13,30H14V31H13zM14,30H15V31H14zM18,30H19V31H18zM21,30H22V31H21zM22,30H23V31H22zM23,30H24V31H23zM24,30H25V31H24zM28,30H29V31H28zM29,30H30V31H29zM33,30H34V31H33zM35,30H36V31H35zM37,30H38V31H37zM5,31H6V32H5zM6,31H7V32H6zM7,31H8V32H7zM8,31H9V32H8zM9,31H10V32H9zM10,31H11V32H10zM11,31H12V32H11zM14,31H15V32H14zM15,31H16V32H15zM16,31H17V32H16zM20,31H21V32H20zM21,31H22V32H21zM22,31H23V32H22zM25,31H26V32H25zM27,31H28V32H27zM28,31H29V32H28zM29,31H30V32H29zM31,31H32V32H31zM33,31H34V32H33zM35,31H36V32H35zM5,32H6V33H5zM11,32H12V33H11zM13,32H14V33H13zM16,32H17V33H16zM18,32H19V33H18zM21,32H22V33H21zM22,32H23V33H22zM23,32H24V33H23zM25,32H26V33H25zM28,32H29V33H28zM29,32H30V33H29zM33,32H34V33H33zM34,32H35V33H34zM35,32H36V33H35zM36,32H37V33H36zM37,32H38V33H37zM5,33H6V34H5zM7,33H8V34H7zM8,33H9V34H8zM9,33H10V34H9zM11,33H12V34H11zM13,33H14V34H13zM17,33H18V34H17zM18,33H19V34H18zM19,33H20V34H19zM21,33H22V34H21zM24,33H25V34H24zM25,33H26V34H25zM26,33H27V34H26zM27,33H28V34H27zM29,33H30V34H29zM30,33H31V34H30zM31,33H32V34H31zM32,33H33V34H32zM33,33H34V34H33zM34,33H35V34H34zM36,33H37V34H36zM5,34H6V35H5zM7,34H8V35H7zM8,34H9V35H8zM9,34H10V35H9zM11,34H12V35H11zM13,34H14V35H13zM14,34H15V35H14zM20,34H21V35H20zM22,34H23V35H22zM23,34H24V35H23zM28,34H29V35H28zM29,34H30V35H29zM30,34H31V35H30zM33,34H34V35H33zM35,34H36V35H35zM37,34H38V35H37zM5,35H6V36H5zM7,35H8V36H7zM8,35H9V36H8zM9,35H10V36H9zM11,35H12V36H11zM13,35H14V36H13zM14,35H15V36H14zM15,35H16V36H15zM16,35H17V36H16zM17,35H18V36H17zM18,35H19V36H18zM19,35H20V36H19zM20,35H21V36H20zM21,35H22V36H21zM25,35H26V36H25zM27,35H28V36H27zM31,35H32V36H31zM32,35H33V36H32zM5,36H6V37H5zM11,36H12V37H11zM16,36H17V37H16zM17,36H18V37H17zM20,36H21V37H20zM23,36H24V37H23zM26,36H27V37H26zM27,36H28V37H27zM30,36H31V37H30zM31,36H32V37H31zM33,36H34V37H33zM35,36H36V37H35zM5,37H6V38H5zM6,37H7V38H6zM7,37H8V38H7zM8,37H9V38H8zM9,37H10V38H9zM10,37H11V38H10zM11,37H12V38H11zM13,37H14V38H13zM20,37H21V38H20zM22,37H23V38H22zM27,37H28V38H27zM28,37H29V38H28zM29,37H30V38H29zM30,37H31V38H30zM32,37H33V38H32zM36,37H37V38H36z" id="qr-path" fill="#000000" fill-opacity="1" fill-rule="nonzero" stroke="none" /></svg>